<svg xmlns="http://www.w3.org/2000/svg" xmlns:xlink="http://www.w3.org/1999/xlink" width="512" zoomAndPan="magnify" viewBox="0 0 384 383.999986" height="512" preserveAspectRatio="xMidYMid meet" version="1.2"><defs/><g id="0c6526f532"><g style="fill:#ffffff;fill-opacity:1;"><g transform="translate(25.64649, 296.249977)"><path style="stroke:none" d="M 166.648438 -147.898438 C 166.648438 -129.4375 160.320312 -114.089844 147.65625 -101.851562 C 135.027344 -89.652344 116.011719 -83.550781 90.601562 -83.550781 L 50.398438 -83.550781 L 50.398438 -87.300781 L 54.148438 -87.300781 L 54.148438 3.75 L 19.351562 3.75 L 19.351562 -212.851562 L 90.601562 -212.851562 C 115.179688 -212.851562 133.980469 -206.816406 147 -194.75 C 160.101562 -182.609375 166.648438 -166.992188 166.648438 -147.898438 Z M 159.148438 -147.898438 C 159.148438 -164.808594 153.398438 -178.589844 141.902344 -189.25 C 130.320312 -199.984375 113.21875 -205.351562 90.601562 -205.351562 L 23.101562 -205.351562 L 23.101562 -209.101562 L 26.851562 -209.101562 L 26.851562 0 L 23.101562 0 L 23.101562 -3.75 L 50.398438 -3.75 L 50.398438 0 L 46.648438 0 L 46.648438 -91.050781 L 90.601562 -91.050781 C 113.988281 -91.050781 131.269531 -96.449219 142.445312 -107.246094 C 153.582031 -118.007812 159.148438 -131.5625 159.148438 -147.898438 Z M 90.601562 -113.550781 C 104.828125 -113.550781 115.183594 -116.519531 121.667969 -122.464844 C 128.054688 -128.320312 131.25 -136.800781 131.25 -147.898438 C 131.25 -159.664062 127.980469 -168.394531 121.4375 -174.097656 C 114.742188 -179.933594 104.464844 -182.851562 90.601562 -182.851562 L 50.398438 -182.851562 L 50.398438 -186.601562 L 54.148438 -186.601562 L 54.148438 -109.800781 L 50.398438 -109.800781 L 50.398438 -113.550781 Z M 90.601562 -106.050781 L 46.648438 -106.050781 L 46.648438 -190.351562 L 90.601562 -190.351562 C 106.335938 -190.351562 118.257812 -186.816406 126.363281 -179.75 C 134.621094 -172.554688 138.75 -161.9375 138.75 -147.898438 C 138.75 -134.601562 134.746094 -124.277344 126.734375 -116.9375 C 118.816406 -109.679688 106.773438 -106.050781 90.601562 -106.050781 Z M 90.601562 -106.050781 "/></g></g><g style="fill:#ffffff;fill-opacity:1;"><g transform="translate(199.346183, 296.249977)"><path style="stroke:none" d="M 132.148438 -209.101562 L 132.148438 -54.601562 C 132.148438 -36.34375 126.472656 -21.695312 115.113281 -10.660156 C 103.785156 0.347656 88.914062 5.851562 70.5 5.851562 C 51.871094 5.851562 36.890625 0.238281 25.5625 -10.984375 C 14.21875 -22.21875 8.550781 -37.457031 8.550781 -56.699219 L 8.550781 -60.449219 L 43.277344 -60.449219 L 43.347656 -56.773438 C 43.53125 -47.421875 45.910156 -39.875 50.484375 -34.136719 C 54.832031 -28.679688 61.503906 -25.949219 70.5 -25.949219 C 79.515625 -25.949219 86.148438 -28.542969 90.398438 -33.726562 C 94.832031 -39.136719 97.050781 -46.09375 97.050781 -54.601562 L 97.050781 -212.851562 L 132.148438 -212.851562 Z M 124.648438 -209.101562 L 128.398438 -209.101562 L 128.398438 -205.351562 L 100.800781 -205.351562 L 100.800781 -209.101562 L 104.550781 -209.101562 L 104.550781 -54.601562 C 104.550781 -44.304688 101.765625 -35.765625 96.199219 -28.972656 C 90.449219 -21.957031 81.882812 -18.449219 70.5 -18.449219 C 59.09375 -18.449219 50.46875 -22.121094 44.617188 -29.464844 C 38.988281 -36.523438 36.066406 -45.578125 35.851562 -56.625 L 39.601562 -56.699219 L 39.601562 -52.949219 L 12.300781 -52.949219 L 12.300781 -56.699219 L 16.050781 -56.699219 C 16.050781 -39.542969 20.980469 -26.082031 30.839844 -16.3125 C 40.707031 -6.539062 53.929688 -1.648438 70.5 -1.648438 C 86.886719 -1.648438 100.015625 -6.445312 109.886719 -16.039062 C 119.730469 -25.601562 124.648438 -38.457031 124.648438 -54.601562 Z M 124.648438 -209.101562 "/></g></g><g style="fill:#ffa500;fill-opacity:1;"><g transform="translate(25.64649, 296.249977)"><path style="stroke:none" d="M 162.90625 -147.90625 C 162.90625 -130.5 156.953125 -116.046875 145.046875 -104.546875 C 133.148438 -93.046875 115 -87.296875 90.59375 -87.296875 L 50.40625 -87.296875 L 50.40625 0 L 23.09375 0 L 23.09375 -209.09375 L 90.59375 -209.09375 C 114.195312 -209.09375 132.148438 -203.394531 144.453125 -192 C 156.753906 -180.601562 162.90625 -165.90625 162.90625 -147.90625 Z M 90.59375 -109.796875 C 105.800781 -109.796875 117.003906 -113.09375 124.203125 -119.6875 C 131.398438 -126.289062 135 -135.695312 135 -147.90625 C 135 -173.695312 120.195312 -186.59375 90.59375 -186.59375 L 50.40625 -186.59375 L 50.40625 -109.796875 Z M 90.59375 -109.796875 "/></g></g><g style="fill:#ffa500;fill-opacity:1;"><g transform="translate(199.346183, 296.249977)"><path style="stroke:none" d="M 128.40625 -209.09375 L 128.40625 -54.59375 C 128.40625 -37.394531 123.101562 -23.644531 112.5 -13.34375 C 101.894531 -3.050781 87.894531 2.09375 70.5 2.09375 C 52.894531 2.09375 38.789062 -3.15625 28.1875 -13.65625 C 17.59375 -24.15625 12.296875 -38.503906 12.296875 -56.703125 L 39.59375 -56.703125 C 39.800781 -46.503906 42.453125 -38.203125 47.546875 -31.796875 C 52.648438 -25.398438 60.300781 -22.203125 70.5 -22.203125 C 80.695312 -22.203125 88.296875 -25.25 93.296875 -31.34375 C 98.296875 -37.445312 100.796875 -45.195312 100.796875 -54.59375 L 100.796875 -209.09375 Z M 128.40625 -209.09375 "/></g></g></g></svg>